<svg xmlns="http://www.w3.org/2000/svg" viewBox="0 0 600 200" width="100%" height="200" preserveAspectRatio="none">
              <defs>
                <linearGradient id="barG" x1="0" x2="0" y1="0" y2="1">
                  <stop offset="0" stop-color="#A78BFA"/>
                  <stop offset="1" stop-color="#6D54D1"/>
                </linearGradient>
                <linearGradient id="areaG" x1="0" x2="0" y1="0" y2="1">
                  <stop offset="0" stop-color="#2563EB" stop-opacity=".25"/>
                  <stop offset="1" stop-color="#2563EB" stop-opacity="0"/>
                </linearGradient>
              </defs>
              <!-- gridlines -->
              <g stroke="#EEE9DD" stroke-width="1">
                <line x1="0" x2="600" y1="40" y2="40"/>
                <line x1="0" x2="600" y1="90" y2="90"/>
                <line x1="0" x2="600" y1="140" y2="140"/>
              </g>
              <!-- bars -->
              <g fill="url(#barG)">
                <rect x="20"  y="110" width="14" height="70" rx="2"/>
                <rect x="60"  y="85" width="14" height="95" rx="2"/>
                <rect x="100" y="65" width="14" height="115" rx="2"/>
                <rect x="140" y="95" width="14" height="85" rx="2"/>
                <rect x="180" y="50" width="14" height="130" rx="2"/>
                <rect x="220" y="75" width="14" height="105" rx="2"/>
                <rect x="260" y="60" width="14" height="120" rx="2"/>
                <rect x="300" y="90" width="14" height="90" rx="2"/>
                <rect x="340" y="55" width="14" height="125" rx="2"/>
                <rect x="380" y="45" width="14" height="135" rx="2"/>
                <rect x="420" y="80" width="14" height="100" rx="2"/>
                <rect x="460" y="70" width="14" height="110" rx="2"/>
                <rect x="500" y="55" width="14" height="125" rx="2"/>
                <rect x="540" y="65" width="14" height="115" rx="2"/>
              </g>
              <!-- line -->
              <path d="M10 80 C 80 60, 140 55, 210 70 S 340 95, 410 50 S 520 40, 590 55" stroke="var(--accent)" stroke-width="2.5" fill="none" stroke-linecap="round"/>
              <path d="M10 80 C 80 60, 140 55, 210 70 S 340 95, 410 50 S 520 40, 590 55 L 590 200 L 10 200 Z" fill="url(#areaG)"/>
            </svg>