<svg xmlns="http://www.w3.org/2000/svg" viewBox="0 0 300 120" width="100%" height="120" preserveAspectRatio="none">
              <defs>
                <linearGradient id="ag2" x1="0" x2="0" y1="0" y2="1">
                  <stop offset="0" stop-color="#A78BFA"/><stop offset="1" stop-color="#6D54D1"/>
                </linearGradient>
              </defs>
              <g fill="url(#ag2)">
                <rect x="10" y="60" width="10" height="50" rx="1.5"/>
                <rect x="30" y="40" width="10" height="70" rx="1.5"/>
                <rect x="50" y="30" width="10" height="80" rx="1.5"/>
                <rect x="70" y="55" width="10" height="55" rx="1.5"/>
                <rect x="90" y="20" width="10" height="90" rx="1.5"/>
                <rect x="110" y="45" width="10" height="65" rx="1.5"/>
                <rect x="130" y="25" width="10" height="85" rx="1.5"/>
                <rect x="150" y="60" width="10" height="50" rx="1.5"/>
                <rect x="170" y="35" width="10" height="75" rx="1.5"/>
                <rect x="190" y="15" width="10" height="95" rx="1.5"/>
                <rect x="210" y="50" width="10" height="60" rx="1.5"/>
                <rect x="230" y="40" width="10" height="70" rx="1.5"/>
                <rect x="250" y="25" width="10" height="85" rx="1.5"/>
                <rect x="270" y="35" width="10" height="75" rx="1.5"/>
              </g>
              <path d="M10 50 C 60 30, 120 25, 180 40 S 260 20, 290 30" stroke="#2563EB" stroke-width="2" fill="none"/>
            </svg>